<svg width="16" height="16" viewBox="0 0 16 16" fill="none" xmlns="http://www.w3.org/2000/svg">
<path d="M14 4.33325C14 5.61992 12.9533 6.66659 11.6667 6.66659C10.38 6.66659 9.33333 5.61992 9.33333 4.33325C9.33333 3.04659 10.38 1.99992 11.6667 1.99992C12.9533 1.99992 14 3.04659 14 4.33325ZM12.6667 7.85992C12.3333 7.94659 12 7.99992 11.6667 7.99992C9.64667 7.99992 8 6.35325 8 4.33325C8 3.35325 8.38667 2.46659 9 1.80659C8.76667 1.51992 8.40667 1.33325 8 1.33325C7.26667 1.33325 6.66667 1.93325 6.66667 2.66659V2.85992C4.68667 3.44659 3.33333 5.26659 3.33333 7.33325V11.3333L2 12.6666V13.3333H14V12.6666L12.6667 11.3333V7.85992ZM8 15.3333C8.74 15.3333 9.33333 14.7399 9.33333 13.9999H6.66667C6.66667 14.7399 7.26667 15.3333 8 15.3333Z" fill="#4C4C4C"/>
</svg>
