<svg width="24" height="24" viewBox="0 0 24 24" fill="none" xmlns="http://www.w3.org/2000/svg">
<path d="M20 15.3333V6.79167C20 6.21667 19.546 5.75 18.9866 5.75C18.4272 5.75 17.9732 6.21667 17.9732 6.79167V12H17.1625V4.29167C17.1625 3.71667 16.7085 3.25 16.1491 3.25C15.5897 3.25 15.1357 3.71667 15.1357 4.29167V12H14.325V3.04167C14.325 2.46667 13.871 2 13.3116 2C12.7522 2 12.2982 2.46667 12.2982 3.04167V12H11.4875V4.70833C11.4875 4.13333 11.0335 3.66667 10.4741 3.66667C9.9147 3.66667 9.4607 4.13333 9.4607 4.70833V14.5H8.85266L7.70955 11.5583C7.5312 11.1 7.15827 10.75 6.70427 10.5917L6.0638 10.375C5.40712 10.1583 4.80719 10.8167 5.05851 11.475L7.51498 17.8333C8.49595 20.3333 10.8713 22 13.5143 22C17.0976 22 20 19.0167 20 15.3333Z" fill="black"/>
</svg>
