<svg width="32" height="32" viewBox="0 0 32 32" fill="none" xmlns="http://www.w3.org/2000/svg">
<path fill-rule="evenodd" clip-rule="evenodd" d="M14 21.8269C11.11 20.9659 9 18.2859 9 15.1169C9 11.2539 12.137 8.11694 16 8.11694C19.863 8.11694 23 11.2539 23 15.1169C23 17.9539 21.31 20.3979 18.882 21.4969C18.882 21.4969 16.288 23.6869 14.881 24.8739C14.722 25.0079 14.499 25.0379 14.31 24.9499C14.121 24.8619 14 24.6729 14 24.4639C14 23.3489 14 21.8269 14 21.8269Z" fill="white"/>
<path fill-rule="evenodd" clip-rule="evenodd" d="M4.24798 18.146C4.07598 14.282 4.38898 10.588 6.15098 7.95803C9.01798 3.67803 13.194 2.97803 16 2.97803C18.806 2.97803 22.982 3.67803 25.849 7.95803C27.611 10.588 27.924 14.282 27.752 18.146C27.724 18.776 27.007 19.148 26.741 19.148L25.715 18C25.872 14.625 25.69 11.392 24.151 9.09503C21.784 5.56103 18.317 5.02203 16 5.02203C13.683 5.02203 10.216 5.56103 7.84898 9.09503C6.30998 11.392 6.12798 14.625 6.28498 18L5.51798 19.139C5.25198 19.139 4.27798 18.822 4.24798 18.146Z" fill="white"/>
<path fill-rule="evenodd" clip-rule="evenodd" d="M4.248 18.146C4.48 18.052 4.734 18 5 18H6.695C7.093 18 7.416 18.323 7.416 18.721V25.882C7.416 26.127 7.292 26.355 7.086 26.488C6.88 26.621 6.621 26.64 6.398 26.539L4.531 25.693C3.599 25.271 3 24.343 3 23.32V20C3 19.161 3.516 18.443 4.248 18.146Z" fill="white"/>
<path fill-rule="evenodd" clip-rule="evenodd" d="M27.752 18.146C28.484 18.443 29 19.161 29 20V23.32C29 24.343 28.401 25.271 27.469 25.693L25.602 26.539C25.379 26.64 25.12 26.621 24.914 26.488C24.708 26.355 24.584 26.127 24.584 25.882V18.721C24.584 18.323 24.907 18 25.305 18H27C27.266 18 27.52 18.052 27.752 18.146Z" fill="white"/>
<path fill-rule="evenodd" clip-rule="evenodd" d="M6.765 17.502C7.407 17.538 7.916 18.07 7.916 18.721V25.882C7.916 26.297 7.705 26.683 7.357 26.908C7.008 27.133 6.569 27.165 6.191 26.994L4.324 26.149C3.214 25.646 2.5 24.539 2.5 23.32V20C2.5 19.081 2.996 18.278 3.735 17.843C3.592 13.982 3.971 10.314 5.736 7.67903C8.725 3.21703 13.074 2.47803 16 2.47803C18.926 2.47803 23.275 3.21703 26.264 7.67903C28.029 10.314 28.408 13.982 28.265 17.843C29.004 18.278 29.5 19.081 29.5 20V23.32C29.5 24.539 28.786 25.646 27.676 26.149L25.809 26.994C25.431 27.165 24.992 27.133 24.643 26.908C24.295 26.683 24.084 26.297 24.084 25.882V18.721C24.084 18.07 24.593 17.538 25.235 17.502C25.35 14.416 25.149 11.483 23.736 9.37303C21.491 6.02203 18.197 5.52203 16 5.52203C13.803 5.52203 10.509 6.02203 8.264 9.37303C6.851 11.483 6.65 14.416 6.765 17.502ZM4.436 18.61C3.887 18.832 3.5 19.371 3.5 20V23.32C3.5 24.146 3.984 24.897 4.737 25.238L6.604 26.083C6.672 26.114 6.752 26.108 6.815 26.068C6.878 26.027 6.916 25.957 6.916 25.882V18.721C6.916 18.599 6.817 18.5 6.695 18.5H5C4.801 18.5 4.61 18.539 4.436 18.61ZM27.276 17.515C27.385 13.989 27.05 10.649 25.434 8.23603C22.689 4.13903 18.686 3.47803 16 3.47803C13.314 3.47803 9.311 4.13903 6.566 8.23603C4.95 10.649 4.615 13.989 4.724 17.515C4.815 17.505 4.907 17.5 5 17.5H5.764C5.648 14.2 5.921 11.074 7.434 8.81703C9.923 5.10103 13.564 4.52203 16 4.52203C18.436 4.52203 22.077 5.10103 24.566 8.81703C26.079 11.074 26.352 14.2 26.236 17.5H27C27.093 17.5 27.185 17.505 27.276 17.515ZM27 18.5H25.305C25.183 18.5 25.084 18.599 25.084 18.721V25.882C25.084 25.957 25.122 26.027 25.185 26.068C25.248 26.108 25.328 26.114 25.396 26.083L27.263 25.238C28.016 24.897 28.5 24.146 28.5 23.32V20C28.5 19.371 28.113 18.832 27.564 18.61C27.39 18.539 27.199 18.5 27 18.5ZM13.5 22.072C10.588 21.042 8.5 18.263 8.5 15C8.5 10.861 11.861 7.50003 16 7.50003C20.139 7.50003 23.5 10.861 23.5 15C23.5 18.014 21.719 20.614 19.153 21.806L14.322 25.882C14.174 26.008 13.966 26.035 13.789 25.953C13.613 25.871 13.5 25.695 13.5 25.5V22.072ZM14.5 21.71V24.424L18.56 20.998C18.595 20.968 18.634 20.944 18.676 20.925C20.93 19.904 22.5 17.634 22.5 15C22.5 11.413 19.587 8.50003 16 8.50003C12.413 8.50003 9.5 11.413 9.5 15C9.5 17.942 11.459 20.431 14.143 21.23C14.355 21.294 14.5 21.488 14.5 21.71ZM11.515 13.985C11.515 13.709 11.739 13.485 12.015 13.485C12.291 13.485 12.515 13.709 12.515 13.985V16.029C12.515 16.305 12.291 16.529 12.015 16.529C11.739 16.529 11.515 16.305 11.515 16.029V13.985ZM13.515 13.122C13.515 12.846 13.739 12.622 14.015 12.622C14.291 12.622 14.515 12.846 14.515 13.122V16.892C14.515 17.168 14.291 17.392 14.015 17.392C13.739 17.392 13.515 17.168 13.515 16.892V13.122ZM17.504 13.116C17.504 12.84 17.728 12.616 18.004 12.616C18.28 12.616 18.504 12.84 18.504 13.116V16.886C18.504 17.162 18.28 17.386 18.004 17.386C17.728 17.386 17.504 17.162 17.504 16.886V13.116ZM19.504 13.882C19.504 13.606 19.728 13.382 20.004 13.382C20.28 13.382 20.504 13.606 20.504 13.882V15.926C20.504 16.202 20.28 16.426 20.004 16.426C19.728 16.426 19.504 16.202 19.504 15.926V13.882ZM15.515 13.985C15.515 13.709 15.739 13.485 16.015 13.485C16.291 13.485 16.515 13.709 16.515 13.985V16.029C16.515 16.305 16.291 16.529 16.015 16.529C15.739 16.529 15.515 16.305 15.515 16.029V13.985Z" fill="black"/>
</svg>
