<svg width="36" height="36" viewBox="0 0 36 36" fill="none" xmlns="http://www.w3.org/2000/svg">
<rect x="0.5" y="0.5" width="35" height="35" fill="white"/>
<rect x="0.5" y="0.5" width="35" height="35" stroke="black"/>
<path d="M15 8L13.2 10H10C8.9 10 8 10.9 8 12V24C8 25.1 8.9 26 10 26H20.5C20.1 25.4 19.7 24.7 19.5 24H10V12H14.1L15.9 10H20.1L21.9 12H26V16.2C26.7 16.4 27.4 16.8 28 17.3V12C28 10.9 27.1 10 26 10H22.8L21 8H15ZM18 13C15.2 13 13 15.2 13 18C13 20.8 15.2 23 18 23C18.4 23 18.8 23 19.2 22.9C19.1 22.4 19 22 19 21.5V20.8C18.7 20.9 18.3 21 18 21C16.3 21 15 19.7 15 18C15 16.3 16.3 15 18 15C19.4 15 20.6 16 20.9 17.3C21.4 16.9 22 16.5 22.7 16.3C22 14.3 20.1 13 18 13Z" fill="black"/>
<path d="M25.9149 20.6667L26.3326 21.0844L22.2976 25.1111H21.8888V24.7022L25.9149 20.6667ZM27.5147 18C27.4036 18 27.288 18.0444 27.2036 18.1289L26.3904 18.9422L28.0568 20.6089L28.87 19.7956C29.0433 19.6222 29.0433 19.3333 28.87 19.1689L27.8302 18.1289C27.7413 18.04 27.6302 18 27.5147 18ZM25.9149 19.4178L21 24.3333V26H22.6664L27.5813 21.0844L25.9149 19.4178Z" fill="black"/>
</svg>
