<svg width="17" height="16" viewBox="0 0 17 16" fill="none" xmlns="http://www.w3.org/2000/svg">
<mask id="mask0_15_98" style="mask-type:alpha" maskUnits="userSpaceOnUse" x="-1" y="-3" width="19" height="20">
<rect x="-0.772711" y="-2.16364" width="18.5454" height="18.5454" fill="#D9D9D9"/>
</mask>
<g mask="url(#mask0_15_98)">
<path d="M14.5273 15.3L11.2818 12.0932C10.8311 12.2348 10.3771 12.3411 9.91988 12.4119C9.46269 12.4828 8.98939 12.5182 8.5 12.5182C6.5553 12.5182 4.8231 11.9805 3.30341 10.9051C1.78371 9.82973 0.682576 8.4356 0 6.72273C0.270454 6.04015 0.611742 5.40587 1.02386 4.81988C1.43598 4.2339 1.90606 3.70909 2.43409 3.24545L0.309091 1.08182L1.39091 0L15.6091 14.2182L14.5273 15.3ZM8.5 10.2C8.64166 10.2 8.77367 10.1936 8.89602 10.1807C9.01837 10.1678 9.15038 10.142 9.29204 10.1034L5.11932 5.93068C5.08068 6.07235 5.05492 6.20435 5.04204 6.3267C5.02916 6.44905 5.02273 6.58106 5.02273 6.72273C5.02273 7.68863 5.36079 8.50966 6.03693 9.18579C6.71307 9.86193 7.53409 10.2 8.5 10.2ZM14.1409 10.5477L11.6875 8.11363C11.7776 7.89469 11.8485 7.67254 11.9 7.44716C11.9515 7.22178 11.9773 6.9803 11.9773 6.72273C11.9773 5.75682 11.6392 4.93579 10.9631 4.25966C10.2869 3.58352 9.46591 3.24545 8.5 3.24545C8.24242 3.24545 8.00094 3.27121 7.77557 3.32273C7.55019 3.37424 7.32803 3.45151 7.10909 3.55454L5.13863 1.58409C5.66666 1.36515 6.20757 1.20095 6.76136 1.09148C7.31515 0.982007 7.89469 0.927272 8.5 0.927272C10.4447 0.927272 12.1769 1.46496 13.6966 2.54034C15.2163 3.61572 16.3174 5.00985 17 6.72273C16.7038 7.48257 16.3142 8.18769 15.8312 8.83807C15.3483 9.48844 14.7848 10.0583 14.1409 10.5477ZM10.567 6.99318L8.24886 4.675C8.60947 4.6106 8.9411 4.63958 9.24375 4.76193C9.5464 4.88428 9.80719 5.06136 10.0261 5.29318C10.2451 5.525 10.4028 5.79223 10.4994 6.09488C10.596 6.39754 10.6186 6.69697 10.567 6.99318Z" fill="#898989"/>
</g>
</svg>
