<svg width="24" height="24" viewBox="0 0 24 24" fill="none" xmlns="http://www.w3.org/2000/svg">
<path d="M11 16V8H13V16H11ZM7 16V8H9V16H7ZM10 2C11.3132 2 12.6136 2.25866 13.8268 2.7612C15.0401 3.26375 16.1425 4.00035 17.0711 4.92893C17.9997 5.85752 18.7362 6.95991 19.2388 8.17317C19.7413 9.38642 20 10.6868 20 12C20 14.6522 18.9464 17.1957 17.0711 19.0711C15.1957 20.9464 12.6522 22 10 22C8.68678 22 7.38642 21.7413 6.17317 21.2388C4.95991 20.7362 3.85752 19.9997 2.92893 19.0711C1.05357 17.1957 0 14.6522 0 12C0 9.34784 1.05357 6.8043 2.92893 4.92893C4.8043 3.05357 7.34784 2 10 2ZM10 4C7.87827 4 5.84344 4.84285 4.34315 6.34315C2.84285 7.84344 2 9.87827 2 12C2 14.1217 2.84285 16.1566 4.34315 17.6569C5.84344 19.1571 7.87827 20 10 20C12.1217 20 14.1566 19.1571 15.6569 17.6569C17.1571 16.1566 18 14.1217 18 12C18 9.87827 17.1571 7.84344 15.6569 6.34315C14.1566 4.84285 12.1217 4 10 4Z" fill="black"/>
</svg>
